<svg xmlns="http://www.w3.org/2000/svg" xml:space="preserve" width="192px" height="16px" version="1.1" shape-rendering="geometricPrecision" text-rendering="geometricPrecision" image-rendering="optimizeQuality" fill-rule="evenodd" clip-rule="evenodd"
     viewBox="0 0 54.9 4.56"
     xmlns:xlink="http://www.w3.org/1999/xlink">
   <path fill="#233B4E" fill-rule="nonzero" d="M1.14 4.5l-1.14 0 0 -4.44 1.14 0 0 1.75 0.57 0 0.99 -1.75 1.2 0 -1.24 2.19 1.24 2.25 -1.21 0 -0.98 -1.81 -0.57 0 0 1.81zm6 -3.23c0,-0.26 -0.13,-0.38 -0.38,-0.38l-1.08 0c-0.25,0 -0.38,0.12 -0.38,0.38l0 2.03c0,0.25 0.13,0.38 0.38,0.38l1.08 0c0.25,0 0.38,-0.13 0.38,-0.38l0 -2.03zm1.14 2.03c0,0.44 -0.1,0.76 -0.3,0.96 -0.2,0.2 -0.53,0.3 -0.97,0.3l-1.58 0c-0.45,0 -0.77,-0.1 -0.97,-0.3 -0.2,-0.2 -0.3,-0.52 -0.3,-0.96l0 -2.03c0,-0.45 0.1,-0.77 0.3,-0.97 0.2,-0.2 0.52,-0.3 0.97,-0.3l1.58 0c0.44,0 0.77,0.1 0.97,0.3 0.2,0.2 0.3,0.52 0.3,0.97l0 2.03zm4.5 1.2l-1.14 0 0 -1.81 -1.59 0 0 1.81 -1.14 0 0 -4.44 1.14 0 0 1.75 1.59 0 0 -1.75 1.14 0 0 4.44zm4.06 -0.06c-0.95,0.08 -1.73,0.12 -2.35,0.12 -0.41,0 -0.72,-0.09 -0.91,-0.29 -0.2,-0.19 -0.29,-0.5 -0.29,-0.91l0 -2.03c0,-0.44 0.1,-0.76 0.3,-0.97 0.2,-0.2 0.52,-0.3 0.96,-0.3l2.29 0 0 0.89 -2.03 0c-0.26,0 -0.38,0.13 -0.38,0.38l0 2.03c0,0.1 0.03,0.17 0.08,0.23 0.06,0.06 0.13,0.09 0.22,0.09 0.09,0 0.19,0 0.29,-0.01 0.11,0 0.22,0 0.33,-0.01 0.12,0 0.23,0 0.35,-0.01 0.11,0 0.26,-0.01 0.45,-0.02 0.18,-0.02 0.41,-0.03 0.69,-0.05l0 0.86zm2.78 0.06l-1.14 0 0 -3.55 -1.33 0 0 -0.89 3.81 0 0 0.89 -1.34 0 0 3.55zm2.57 0l-1.23 0 1.68 -4.44 1.26 0 1.68 4.44 -1.23 0 -0.29 -0.79 -1.58 0 -0.29 0.79zm0.57 -1.62l1.02 0 -0.51 -1.49 -0.51 1.49zm7.01 1.62l-1.14 0 0 -1.81 -1.59 0 0 1.81 -1.14 0 0 -4.44 1.14 0 0 1.75 1.59 0 0 -1.75 1.14 0 0 4.44zm2.91 0l-1.14 0 0 -3.55 -1.33 0 0 -0.89 3.8 0 0 0.89 -1.33 0 0 3.55zm2.57 0l-1.24 0 1.68 -4.44 1.27 0 1.68 4.44 -1.23 0 -0.29 -0.79 -1.58 0 -0.29 0.79zm0.57 -1.62l1.01 0 -0.5 -1.49 -0.51 1.49z"/>
 <path fill="#E31E24" fill-rule="nonzero" d="M42 3.61l2.03 0 0 0.89 -3.17 0 0 -4.44 1.14 0 0 3.55zm4.85 0.89l-2.28 0 0 -0.89 0.57 0 0 -2.66 -0.57 0 0 -0.89 2.28 0 0 0.89 -0.57 0 0 2.66 0.57 0 0 0.89zm1.71 0l-1.14 0 0 -4.44 3.52 0 0 0.89 -2.38 0 0 1.05 1.87 0 0 0.88 -1.87 0 0 1.62zm6.34 0l-3.52 0 0 -4.44 3.52 0 0 0.89 -2.38 0 0 0.86 1.87 0 0 0.88 -1.87 0 0 0.92 2.38 0 0 0.89z"/>
</svg>