<svg xmlns="http://www.w3.org/2000/svg" viewBox="0 0 186.22 15.77">
      <path d="M125.45,15.55l-1-2.74h-5.37l-1,2.74H114L119.65.22h4.29l5.7,15.33ZM121.8,4.82,120.08,10h3.44ZM110.74,15.55h-3.87V3.28h-4.51V.22h12.89V3.28h-4.51Zm-14-6.24H91.41v6.24H87.54V.22h3.87v6h5.37v-6h3.86V15.55H96.78ZM81.1,12.81H75.73l-1,2.74H70.57L76.27.22h4.29l5.69,15.33H82.06Zm-2.69-8L76.7,10h3.43ZM67.35,15.55H63.49V3.28H59V.22H71.86V3.28H67.35Zm-20.27-.79a4.34,4.34,0,0,1-1-3.15v-7a4.64,4.64,0,0,1,1-3.34,4.44,4.44,0,0,1,3.27-1h7.74V3.28H51.24c-.86,0-1.28.44-1.28,1.32v7a1.08,1.08,0,0,0,.29.8,1,1,0,0,0,.74.29h1l1.12,0,1.17-.05c.39,0,.9,0,1.53-.08l2.33-.16v3q-4.8.43-7.95.44A4.18,4.18,0,0,1,47.08,14.76ZM39.86,9.31H34.49v6.24H30.63V.22h3.86v6h5.37v-6h3.87V15.55H39.86ZM24,15.77H18.6a4.47,4.47,0,0,1-3.28-1,4.65,4.65,0,0,1-1-3.34v-7a4.64,4.64,0,0,1,1-3.34A4.47,4.47,0,0,1,18.6,0H24a4.44,4.44,0,0,1,3.27,1,4.64,4.64,0,0,1,1,3.34v7a4.65,4.65,0,0,1-1,3.34A4.44,4.44,0,0,1,24,15.77ZM24.4,4.38a1.15,1.15,0,0,0-1.29-1.31H19.46a1.15,1.15,0,0,0-1.29,1.31v7a1.15,1.15,0,0,0,1.29,1.31h3.65a1.15,1.15,0,0,0,1.29-1.31ZM13.21,15.55H9.13L5.8,9.31H3.87v6.24H0V.22H3.87v6H5.8l3.35-6h4.08L9,7.77Z" style="fill: rgb(38, 58, 77);fill-rule: evenodd"/>
      <path d="M186.22,12.48v3.07H174.3V.22h11.92V3.28h-8.06v3h6.34V9.31h-6.34v3.17ZM164.52,6.9h6.34V10h-6.34v5.58h-3.86V.22h11.92V3.28h-8.06Zm-13.74,5.58h1.93V3.28h-1.93V.22h7.73V3.28h-1.93v9.2h1.93v3.07h-7.73ZM138,.22h3.87V12.48h7.84v3.07H138Z" style="fill: red;fill-rule: evenodd"/>
</svg>
